/* XPM */
static char * ocara_xpm[] = {
"23 24 16 1",
" 	c None",
".	c #FFCF00",
"+	c #000080",
"@	c #FCCC02",
"#	c #B29027",
"$	c #1A1573",
"%	c #201A70",
"&	c #E5BA0D",
"*	c #FDCE01",
"=	c #9A7D00",
"-	c #B59300",
";	c #D6AE00",
">	c #000000",
",	c #3B3000",
"'	c #665300",
")	c #040400",
" .                     ",
"  ..                   ",
"     .             ++  ",
"      ..        ++     ",
"        ..   +++       ",
"          @#$+         ",
"         +%&*          ",
"       +++  ...        ",
"      +++    ...       ",
"     +++      ...      ",
"    +++       ....     ",
"   ++++        ....    ",
"  ++++          ....   ",
"  ++++          ....   ",
" ++++           .....  ",
" ++++            ....  ",
"+++++            ..... ",
"+++++            ..... ",
"++++             ..... ",
"                 =..-;.",
" > >  >    >>  > >  ,'.",
">   > >     >  >>    ) ",
">   > >   > >  >>  > > ",
" > >  >      > > >    >"};
